<?xml version="1.0" encoding="UTF-8"?>
<svg version="1.1" xmlns="http://www.w3.org/2000/svg" width="64" height="64">
<path d="M0 0 C21.12 0 42.24 0 64 0 C64 21.12 64 42.24 64 64 C42.88 64 21.76 64 0 64 C0 42.88 0 21.76 0 0 Z " fill="#020000" transform="translate(0,0)"/>
<path d="M0 0 C2.701875 -0.061875 5.40375 -0.12375 8.1875 -0.1875 C9.02949951 -0.21481201 9.87149902 -0.24212402 10.73901367 -0.27026367 C15.28924515 -0.32056339 18.3500226 -0.03804825 22 3 C22.5 5.5625 22.5 5.5625 22 8 C19 10 19 10 16 10 C16 10.66 16 11.32 16 12 C16.804375 12.144375 17.60875 12.28875 18.4375 12.4375 C21 13 21 13 22 14 C22.14115161 16.67058851 22.04247107 19.32432238 22 22 C19.69 22 17.38 22 15 22 C14.67 19.69 14.34 17.38 14 15 C11.36 14.67 8.72 14.34 6 14 C6 16.64 6 19.28 6 22 C4.02 22 2.04 22 0 22 C0 14.74 0 7.48 0 0 Z " fill="#D00002" transform="translate(6,23)"/>
<path d="M0 0 C5.61 0 11.22 0 17 0 C15.84615385 8.07692308 15.84615385 8.07692308 11 12 C6.65740181 13.44753273 2.53846052 13.52936942 -2 13 C-5.23939656 11.26460898 -7.42321134 9.57678866 -10 7 C-10 5.68 -10 4.36 -10 3 C-8.02 2.67 -6.04 2.34 -4 2 C-3.71125 2.639375 -3.4225 3.27875 -3.125 3.9375 C-2.17176549 6.15206079 -2.17176549 6.15206079 0 7 C1.54023996 7.06950541 3.08334988 7.08452357 4.625 7.0625 C5.44226562 7.05347656 6.25953125 7.04445313 7.1015625 7.03515625 C7.72804688 7.02355469 8.35453125 7.01195312 9 7 C9 6.34 9 5.68 9 5 C6.03 5 3.06 5 0 5 C0 3.35 0 1.7 0 0 Z " fill="#C60002" transform="translate(44,33)"/>
<path d="M0 0 C3.18970398 1.73983854 5.44695493 3.44695493 8 6 C8 6.99 8 7.98 8 9 C4.6875 9.1875 4.6875 9.1875 1 9 C-0.02019573 8.0206121 -1.02149805 7.02104551 -2 6 C-5.43202271 5.71399811 -7.72429875 5.90809958 -11 7 C-11.73323796 9.01508358 -11.73323796 9.01508358 -12 11 C-13.65 10.67 -15.3 10.34 -17 10 C-17.33 8.68 -17.66 7.36 -18 6 C-12.1367668 0.91853122 -7.90325834 -1.01150917 0 0 Z " fill="#C70002" transform="translate(52,22)"/>
<path d="M0 0 C2.97 0 5.94 0 9 0 C9 1.32 9 2.64 9 4 C6.03 4 3.06 4 0 4 C0 2.68 0 1.36 0 0 Z " fill="#090000" transform="translate(12,28)"/>
</svg>
